DBRep_DrawableShape

CASCADE Topology V1, (c) Matra-Datavision
Locations 0
Curve2ds 116
1 3.1415926535897931 0 0 1 
1 3.1415926535897931 0 0 1 
1 0 5.6500000000000004 1 0 
1 0 3.1415926535897931 1 0 
1 0 0.35000000000000009 1 0 
1 0 3.1415926535897931 1 0 
1 0 -0 0 1 
1 6.2831853071795862 -0 0 1 
1 3.1415926535897931 5.6500000000000004 1 0 
1 0 3.1415926535897931 1 0 
1 3.1415926535897931 0.35000000000000009 1 0 
1 0 3.1415926535897931 1 0 
1 0 0 0 1 
1 3.1415926535897931 0 0 1 
1 0 4.7123889803846897 1 0 
2 1 -1 1 0 -0 1 0.25
1 3.1415926535897931 0 0 1 
1 0 0 0 1 
1 0 0 0 1 
1 3.1415926535897931 0 0 1 
1 0 4.7123889803846897 1 0 
2 1 -1 1 0 -0 1 0.25
1 3.1415926535897931 0 0 1 
1 0 0 0 1 
1 0 4.7123889803846897 1 0 
2 1 -1 -1 0 -0 -1 0.25
1 0 4.7123889803846897 1 0 
2 1 -1 -1 0 -0 -1 0.25
1 0 0 1 0 
1 0 0 1 0 
2 1 -1 1 0 -0 1 1.2
1 -6.2831853071795862 6.25 1 0 
1 2 0 0 -1 
1 0 0 0 1 
2 1 -1 1 0 -0 1 1.2
1 0 6.25 1 0 
1 0 -2 1 0 
1 0 0 1 0 
1 0 0 0 -1 
1 0 0 0 1 
2 1 -1 1 0 -0 1 1.2
1 0 6.25 1 0 
1 0 0 1 0 
1 0 0.5 1 0 
2 1 -1 1 0 -0 1 1.2
1 -6.2831853071795862 0.75 1 0 
1 2 0 0 -1 
1 0.5 0 0 1 
2 1 -1 1 0 -0 1 1.2
1 0 0.75 1 0 
1 0 -2 1 0 
1 0 0.5 1 0 
1 0 0 0 -1 
1 0.5 0 0 1 
2 1 -1 1 0 -0 1 1.2
1 0 0.75 1 0 
1 0.33667504192892006 -6.25 0 1 
1 2.1564818702520476 0 0 1 
1 0 0.5 1 0 
1 0 0 1 0 
1 1.6633249580710801 -6.25 0 1 
1 0.98511078333774571 0 0 1 
1 0.58568554345715096 0 0 1 
1 -6.25 0.33667504192892006 1 0 
1 -6.2831853071795862 6.75 1 0 
2 1 -1 1 0 -0 1 1.2
1 -6.25 1.6633249580710801 1 0 
1 5.6974997637224352 0 0 1 
1 0.5 0 0 1 
1 2 0 0 -1 
1 5.2980745238418407 0 0 1 
1 1.6633249580710801 -6.25 0 1 
1 0 6.75 1 0 
2 1 -1 1 0 -0 1 1.2
1 0.33667504192892006 -6.25 0 1 
1 4.1267034369275386 0 0 1 
1 0 0.5 1 0 
1 0 -2 1 0 
1 3.7272781970469437 0 0 1 
1 -6.25 1.6633249580710801 1 0 
1 0.5 0 0 1 
1 0 0 0 -1 
1 -6.25 0.33667504192892006 1 0 
1 2.5559071101326425 0 0 1 
1 0 6.75 1 0 
2 1 -1 1 0 -0 1 1.2
1 0.33667504192892006 -0.25 0 1 
1 2.1564818702520476 0 0 1 
1 1.6633249580710801 -0.25 0 1 
1 0.98511078333774571 0 0 1 
1 0 0 1 0 
1 0 0 1 0 
1 -6.2831853071795862 0.25 1 0 
2 1 -1 1 0 -0 1 1.2
1 0.58568554345715096 0 0 1 
1 -0.25 0.33667504192892006 1 0 
1 0 0 0 1 
1 2 0 0 -1 
1 -0.25 1.6633249580710801 1 0 
1 5.6974997637224352 0 0 1 
1 0 0.25 1 0 
2 1 -1 1 0 -0 1 1.2
1 5.2980745238418407 0 0 1 
1 1.6633249580710801 -0.25 0 1 
1 0.33667504192892006 -0.25 0 1 
1 4.1267034369275386 0 0 1 
1 0 0 1 0 
1 0 -2 1 0 
1 3.7272781970469437 0 0 1 
1 -0.25 1.6633249580710801 1 0 
1 0 0 0 1 
1 0 0 0 -1 
1 -0.25 0.33667504192892006 1 0 
1 2.5559071101326425 0 0 1 
1 0 0.25 1 0 
2 1 -1 1 0 -0 1 1.2
Curves 62
7 0 0  1 2 2  -3 -1.8369701987210297e-17 -0.14999999999999999  3 -1.8369701987210297e-17 -0.14999999999999999 
 0 2 6 2
2 2.6499999999999999 0 0 1 0 -0 0 0 1 0 -1 0 0.14999999999999999
2 -2.6499999999999999 0 0 1 0 -0 0 0 1 0 -1 0 0.14999999999999999
1 -3 3.6739403974420595e-17 0.14999999999999999 1 0 0 
2 2.6499999999999999 0 0 1 0 0 0 -1.2246467991473532e-16 -1 -0 1 -1.2246467991473532e-16 0.14999999999999999
2 -2.6499999999999999 0 0 1 0 0 0 -1.2246467991473532e-16 -1 -0 1 -1.2246467991473532e-16 0.14999999999999999
2 2.6499999999999999 0 0.25 0 -1 0 0 0 1 -1 0 0 0.10000000000000001
2 2.75 0 0 1 0 -0 0 0 1 0 -1 0 0.25
2 2.6499999999999999 -3.061616997868383e-17 -0.25 -0 1 -1.2246467991473532e-16 0 -1.2246467991473532e-16 -1 -1 -0 0 0.10000000000000001
2 -2.6499999999999999 0 0.25 -0 1 0 0 0 1 1 0 -0 0.10000000000000001
2 -2.75 0 0 1 0 -0 0 0 1 0 -1 0 0.25
2 -2.6499999999999999 -3.061616997868383e-17 -0.25 0 -1 1.2246467991473532e-16 0 -1.2246467991473532e-16 -1 1 0 0 0.10000000000000001
2 2.75 0 0 1 0 0 0 -1.2246467991473532e-16 -1 -0 1 -1.2246467991473532e-16 0.25
2 -2.75 0 0 1 0 0 0 -1.2246467991473532e-16 -1 -0 1 -1.2246467991473532e-16 0.25
1 2.75 -1 -1 0 0 1 
2 2.75 0 0 1 0 0 -0 0 1 0 -1 0 1.2
1 2.75 -1 1 0 1 0 
2 2.75 0 0 1 0 0 -0 0 1 0 -1 0 1.2
1 2.75 1 -1 0 0 1 
2 2.75 0 0 1 0 0 -0 0 1 0 -1 0 1.2
1 2.75 -1 -1 0 1 0 
2 2.75 0 0 1 0 0 -0 0 1 0 -1 0 1.2
1 -2.75 -1 -1 0 0 1 
2 -2.75 0 0 1 0 0 -0 0 1 0 -1 0 1.2
1 -2.75 -1 1 0 1 0 
2 -2.75 0 0 1 0 0 -0 0 1 0 -1 0 1.2
1 -2.75 1 -1 0 0 1 
2 -2.75 0 0 1 0 0 -0 0 1 0 -1 0 1.2
1 -2.75 -1 -1 -0 1 0 
2 -2.75 0 0 1 0 0 -0 0 1 0 -1 0 1.2
1 -3.5 -1 -0.66332495807107994 1 0 0 
1 3.25 -1 -1 0 0 1 
1 -3.5 -1 0.66332495807107994 1 0 0 
1 -3.5 -0.66332495807107994 1 1 0 0 
2 3.25 0 0 1 0 0 -0 0 1 0 -1 0 1.2
1 -3.5 0.66332495807107994 1 1 0 0 
1 3.25 -1 1 0 1 0 
1 -3.5 1 0.66332495807107994 1 0 0 
2 3.25 0 0 1 0 0 -0 0 1 0 -1 0 1.2
1 -3.5 1 -0.66332495807107994 1 0 0 
1 3.25 1 -1 0 0 1 
1 -3.5 0.66332495807107994 -1 1 0 0 
2 3.25 0 0 1 0 0 -0 0 1 0 -1 0 1.2
1 3.25 -1 -1 0 1 0 
1 -3.5 -0.66332495807107994 -1 1 0 0 
2 3.25 0 0 1 0 0 -0 0 1 0 -1 0 1.2
1 -3.5 -1 -0.66332495807107994 1 0 0 
1 -3.5 -1 0.66332495807107994 1 0 0 
1 -3.25 -1 -1 0 0 1 
2 -3.25 0 0 1 0 0 -0 0 1 0 -1 0 1.2
1 -3.5 -0.66332495807107994 1 1 0 0 
1 -3.25 -1 1 -0 1 0 
1 -3.5 0.66332495807107994 1 1 0 0 
2 -3.25 0 0 1 0 0 -0 0 1 0 -1 0 1.2
1 -3.5 1 0.66332495807107994 1 0 0 
1 -3.5 1 -0.66332495807107994 1 0 0 
1 -3.25 1 -1 0 0 1 
2 -3.25 0 0 1 0 0 -0 0 1 0 -1 0 1.2
1 -3.5 0.66332495807107994 -1 1 0 0 
1 -3.25 -1 -1 -0 1 0 
1 -3.5 -0.66332495807107994 -1 1 0 0 
2 -3.25 0 0 1 0 0 -0 0 1 0 -1 0 1.2
Polygon3D 0
PolygonOnTriangulations 0
Surfaces 26
10 0 3.1415926535897931 0 6
2 -3 0 0 1 0 0 -0 0 1 0 -1 0 0.14999999999999999
10 3.1415926535897931 6.2831853071795862 0 6
2 -3 0 0 1 0 0 -0 0 1 0 -1 0 0.14999999999999999
5 2.6499999999999999 0 0 -1 -0 0 0 0 1 0 -1 -0 0.25 0.10000000000000001
5 -2.6499999999999999 0 0 1 0 -0 0 0 1 0 -1 0 0.25 0.10000000000000001
5 2.6499999999999999 0 0 -1 -0 0 0 -1.2246467991473532e-16 -1 -0 1 -1.2246467991473532e-16 0.25 0.10000000000000001
5 -2.6499999999999999 0 0 1 0 -0 0 -1.2246467991473532e-16 -1 -0 1 -1.2246467991473532e-16 0.25 0.10000000000000001
1 2.75 -1 -1 1 0 0 0 0 1 0 -1 0 
1 -2.75 -1 -1 1 0 -0 0 0 1 0 -1 0 
1 2.75 -1 -1 0 1 0 0 0 1 1 0 0 
10 0 3.1415926535897931 0 7
2 -3.5 0 0 1 0 0 0 0 1 0 -1 0 1.2
1 2.75 -1 1 0 0 1 1 0 0 0 1 0 
10 3.1415926535897931 6.2831853071795862 0 7
2 -3.5 0 0 1 0 0 0 0 1 0 -1 0 1.2
1 2.75 1 -1 0 1 0 0 0 1 1 0 0 
10 3.1415926535897931 6.2831853071795862 0 7
2 -3.5 0 0 1 0 0 0 0 1 0 -1 0 1.2
1 2.75 -1 -1 0 0 1 1 0 0 0 1 0 
10 0 3.1415926535897931 0 7
2 -3.5 0 0 1 0 0 0 0 1 0 -1 0 1.2
1 -3.25 -1 -1 -0 1 0 0 0 1 1 0 -0 
10 0 3.1415926535897931 0 7
2 -3.5 0 0 1 0 0 0 0 1 0 -1 0 1.2
1 -3.25 -1 1 0 0 1 1 0 -0 -0 1 0 
10 3.1415926535897931 6.2831853071795862 0 7
2 -3.5 0 0 1 0 0 0 0 1 0 -1 0 1.2
1 -3.25 1 -1 -0 1 0 0 0 1 1 0 -0 
10 3.1415926535897931 6.2831853071795862 0 7
2 -3.5 0 0 1 0 0 0 0 1 0 -1 0 1.2
1 -3.25 -1 -1 0 0 1 1 0 -0 -0 1 0 
10 0 3.1415926535897931 0 7
2 -3.5 0 0 1 0 0 0 0 1 0 -1 0 1.2
1 3.25 -1 -1 1 0 0 0 0 1 0 -1 0 
1 -3.25 -1 -1 1 0 -0 0 0 1 0 -1 0 
Triangulations 0

TShapes 159
Ve
1.0100001e-05
2.65 0 -0.15
0 0

0101101
*
Ve
1.0100001e-05
-2.65 0 -0.15
0 0

0101101
*
Ed
 1.0100001e-05 1 1 0
1  1 0 0.35 5.65
2  1 1 0 0.35 5.65
2  2 2 0 0.35 5.65
0

0101000
-159 0 +158 0 *
Ve
1.0100001e-05
2.65 0 0.15
0 0

0101101
*
Ed
 1.0100001e-05 1 1 0
1  2 0 0 3.14159265358979
2  3 1 0 0 3.14159265358979
2  4 3 0 0 3.14159265358979
4 G1 1 0 3 0
0

0101100
+156 0 -159 0 *
Ve
1.0100001e-05
-2.65 0 0.15
0 0

0101101
*
Ed
 1.0100001e-05 1 1 0
1  3 0 0 3.14159265358979
2  5 1 0 0 3.14159265358979
2  6 4 0 0 3.14159265358979
4 G1 1 0 4 0
0

0101100
+154 0 -158 0 *
Ed
 2.00001e-07 1 1 0
1  4 0 0.35 5.65
2  7 1 0 0.35 5.65
2  8 2 0 0.35 5.65
0

0101000
-156 0 +154 0 *
Wi

0101100
+157 0 -155 0 +153 0 -152 0 *
Fa
0  1e-07 1 0

0111000
+151 0 *
Ed
 2.00001e-07 1 1 0
1  5 0 0 3.14159265358979
2  9 2 0 0 3.14159265358979
2  10 5 0 0 3.14159265358979
4 G1 2 0 5 0
0

0101100
+159 0 -156 0 *
Ed
 1e-05 1 1 0
1  6 0 0 3.14159265358979
2  11 2 0 0 3.14159265358979
2  12 6 0 0 3.14159265358979
4 G1 2 0 6 0
0

0101100
+158 0 -154 0 *
Wi

0101100
+152 0 -149 0 +148 0 -157 0 *
Fa
0  1e-07 2 0

0111000
+147 0 *
Ve
1e-07
2.75 0 0.25
0 0

0101101
*
Ed
 1e-07 1 1 0
1  7 0 3.14159265358979 4.71238898038469
2  13 3 0 3.14159265358979 4.71238898038469
2  14 5 0 3.14159265358979 4.71238898038469
4 G1 3 0 5 0
0

0101100
+156 0 -145 0 *
Ve
1e-07
2.75 0 -0.25
0 0

0101101
*
Ed
 1e-07 1 1 0
1  8 0 0 3.14159265358979
2  15 3 0 0 3.14159265358979
2  16 7 0 0 3.14159265358979
4 G1 3 0 7 0
0

0101100
+145 0 -143 0 *
Ed
 1e-07 1 1 0
1  9 0 3.14159265358979 4.71238898038469
2  17 3 0 3.14159265358979 4.71238898038469
2  18 5 0 3.14159265358979 4.71238898038469
4 G1 3 0 5 0
0

0101100
+159 0 -143 0 *
Wi

0101100
-144 0 +155 0 -142 0 +141 0 *
Fa
0  1e-07 3 0

0111000
+140 0 *
Ve
1e-07
-2.75 0 0.25
0 0

0101101
*
Ed
 1e-07 1 1 0
1  10 0 3.14159265358979 4.71238898038469
2  19 4 0 3.14159265358979 4.71238898038469
2  20 6 0 3.14159265358979 4.71238898038469
4 G1 4 0 6 0
0

0101100
+154 0 -138 0 *
Ve
1e-07
-2.75 0 -0.25
0 0

0101101
*
Ed
 1e-07 1 1 0
1  11 0 0 3.14159265358979
2  21 4 0 0 3.14159265358979
2  22 8 0 0 3.14159265358979
4 G1 4 0 8 0
0

0101100
+138 0 -136 0 *
Ed
 1e-07 1 1 0
1  12 0 3.14159265358979 4.71238898038469
2  23 4 0 3.14159265358979 4.71238898038469
2  24 6 0 3.14159265358979 4.71238898038469
4 G1 4 0 6 0
0

0101100
+158 0 -136 0 *
Wi

0101100
-137 0 +153 0 -135 0 +134 0 *
Fa
0  1e-07 4 0

0111000
+133 0 *
Ed
 1e-07 1 1 0
1  13 0 0 3.14159265358979
2  25 5 0 0 3.14159265358979
2  26 7 0 0 3.14159265358979
4 G1 5 0 7 0
0

0101100
+143 0 -145 0 *
Wi

0101100
-141 0 +149 0 -131 0 +144 0 *
Fa
0  1e-07 5 0

0111000
+130 0 *
Ed
 1e-07 1 1 0
1  14 0 0 3.14159265358979
2  27 6 0 0 3.14159265358979
2  28 8 0 0 3.14159265358979
4 G1 6 0 8 0
0

0101100
+136 0 -138 0 *
Wi

0101100
-134 0 +148 0 -128 0 +137 0 *
Fa
0  1e-07 6 0

0111000
+127 0 *
Ve
2.00001e-07
2.75 -1 -0.66332495807108
0 0

0101101
*
Ve
2.00001e-07
2.75 -1 0.66332495807108
0 0

0101101
*
Ed
 2.00001e-07 1 1 0
1  15 0 0.33667504192892 1.66332495807108
2  29 7 0 0.33667504192892 1.66332495807108
2  30 9 0 0.33667504192892 1.66332495807108
0

0101000
+125 0 -124 0 *
Ve
2.00001e-07
2.75 -0.66332495807108 1
0 0

0101101
*
Ed
 2.00001e-07 1 1 0
1  16 0 6.86887085063674 7.26829609051733
2  31 7 0 6.86887085063674 7.26829609051733
2  32 10 0 6.86887085063674 7.26829609051733
0

0101000
+122 0 -124 0 *
Ve
2.00001e-07
2.75 0.66332495807108 1
0 0

0101101
*
Ed
 2.00001e-07 1 1 0
1  17 0 0.33667504192892 1.66332495807108
2  33 7 0 0.33667504192892 1.66332495807108
2  34 11 0 0.33667504192892 1.66332495807108
0

0101000
+122 0 -120 0 *
Ve
2.00001e-07
2.75 1 0.66332495807108
0 0

0101101
*
Ed
 2.00001e-07 1 1 0
1  18 0 5.29807452384184 5.69749976372244
2  35 7 0 5.29807452384184 5.69749976372244
2  36 12 0 5.29807452384184 5.69749976372244
0

0101000
+118 0 -120 0 *
Ve
2.00001e-07
2.75 1 -0.66332495807108
0 0

0101101
*
Ed
 2.00001e-07 1 1 0
1  19 0 0.33667504192892 1.66332495807108
2  37 7 0 0.33667504192892 1.66332495807108
2  38 13 0 0.33667504192892 1.66332495807108
0

0101000
+116 0 -118 0 *
Ve
2.00001e-07
2.75 0.66332495807108 -1
0 0

0101101
*
Ed
 2.00001e-07 1 1 0
1  20 0 3.72727819704694 4.12670343692754
2  35 7 0 3.72727819704694 4.12670343692754
2  36 14 0 3.72727819704694 4.12670343692754
0

0101000
+114 0 -116 0 *
Ve
2.00001e-07
2.75 -0.66332495807108 -1
0 0

0101101
*
Ed
 2.00001e-07 1 1 0
1  21 0 0.33667504192892 1.66332495807108
2  39 7 0 0.33667504192892 1.66332495807108
2  40 15 0 0.33667504192892 1.66332495807108
0

0101000
+112 0 -114 0 *
Ed
 2.00001e-07 1 1 0
1  22 0 2.15648187025205 2.55590711013264
2  41 7 0 2.15648187025205 2.55590711013264
2  42 16 0 2.15648187025205 2.55590711013264
0

0101000
+125 0 -112 0 *
Wi

0101000
-123 0 +121 0 -119 0 +117 0 +115 0 +113 0 +111 0 +110 0 *
Wi

0101000
-142 0 -131 0 *
Fa
0  1e-07 7 0

0111000
+109 0 +108 0 *
Ve
2.00001e-07
-2.75 -1 -0.66332495807108
0 0

0101101
*
Ve
2.00001e-07
-2.75 -1 0.66332495807108
0 0

0101101
*
Ed
 2.00001e-07 1 1 0
1  23 0 0.33667504192892 1.66332495807108
2  43 8 0 0.33667504192892 1.66332495807108
2  44 17 0 0.33667504192892 1.66332495807108
0

0101000
+106 0 -105 0 *
Ve
2.00001e-07
-2.75 -0.66332495807108 1
0 0

0101101
*
Ed
 2.00001e-07 1 1 0
1  24 0 6.86887085063674 7.26829609051733
2  45 8 0 6.86887085063674 7.26829609051733
2  46 18 0 6.86887085063674 7.26829609051733
0

0101000
+103 0 -105 0 *
Ve
2.00001e-07
-2.75 0.66332495807108 1
0 0

0101101
*
Ed
 2.00001e-07 1 1 0
1  25 0 0.33667504192892 1.66332495807108
2  47 8 0 0.33667504192892 1.66332495807108
2  48 19 0 0.33667504192892 1.66332495807108
0

0101000
+103 0 -101 0 *
Ve
2.00001e-07
-2.75 1 0.66332495807108
0 0

0101101
*
Ed
 2.00001e-07 1 1 0
1  26 0 5.29807452384184 5.69749976372244
2  49 8 0 5.29807452384184 5.69749976372244
2  50 20 0 5.29807452384184 5.69749976372244
0

0101000
+99 0 -101 0 *
Ve
2.00001e-07
-2.75 1 -0.66332495807108
0 0

0101101
*
Ed
 2.00001e-07 1 1 0
1  27 0 0.33667504192892 1.66332495807108
2  51 8 0 0.33667504192892 1.66332495807108
2  52 21 0 0.33667504192892 1.66332495807108
0

0101000
+97 0 -99 0 *
Ve
2.00001e-07
-2.75 0.66332495807108 -1
0 0

0101101
*
Ed
 2.00001e-07 1 1 0
1  28 0 3.72727819704694 4.12670343692754
2  49 8 0 3.72727819704694 4.12670343692754
2  50 22 0 3.72727819704694 4.12670343692754
0

0101000
+95 0 -97 0 *
Ve
2.00001e-07
-2.75 -0.66332495807108 -1
0 0

0101101
*
Ed
 2.00001e-07 1 1 0
1  29 0 0.33667504192892 1.66332495807108
2  53 8 0 0.33667504192892 1.66332495807108
2  54 23 0 0.33667504192892 1.66332495807108
0

0101000
+93 0 -95 0 *
Ed
 2.00001e-07 1 1 0
1  30 0 2.15648187025205 2.55590711013264
2  55 8 0 2.15648187025205 2.55590711013264
2  56 24 0 2.15648187025205 2.55590711013264
0

0101000
+106 0 -93 0 *
Wi

0101000
-104 0 +102 0 -100 0 +98 0 +96 0 +94 0 +92 0 +91 0 *
Wi

0101000
-135 0 -128 0 *
Fa
0  1e-07 8 0

0111000
+90 0 +89 0 *
Ve
2.00001e-07
3.25 -1 -0.66332495807108
0 0

0101101
*
Ed
 2.00001e-07 1 1 0
1  31 0 6.25 6.75
2  57 9 0 6.25 6.75
2  58 16 0 6.25 6.75
0

0101000
+125 0 -87 0 *
Ve
2.00001e-07
3.25 -1 0.66332495807108
0 0

0101101
*
Ed
 2.00001e-07 1 1 0
1  32 0 0.33667504192892 1.66332495807108
2  59 9 0 0.33667504192892 1.66332495807108
2  60 25 0 0.33667504192892 1.66332495807108
0

0101000
+87 0 -85 0 *
Ed
 2.00001e-07 1 1 0
1  33 0 6.25 6.75
2  61 9 0 6.25 6.75
2  62 10 0 6.25 6.75
0

0101000
+124 0 -85 0 *
Wi

0101000
-86 0 -84 0 +83 0 +123 0 *
Fa
0  1e-07 9 0

0111000
+82 0 *
Ve
2.00001e-07
3.25 -0.66332495807108 1
0 0

0101101
*
Ed
 2.00001e-07 1 1 0
1  34 0 6.25 6.75
2  63 10 0 6.25 6.75
2  64 11 0 6.25 6.75
0

0101000
+122 0 -80 0 *
Ed
 2.00001e-07 1 1 0
1  35 0 6.86887085063674 7.26829609051733
2  65 10 0 6.86887085063674 7.26829609051733
2  66 25 0 6.86887085063674 7.26829609051733
0

0101000
+80 0 -85 0 *
Wi

0101000
-79 0 -78 0 +83 0 +121 0 *
Fa
0  1e-07 10 0

0111000
+77 0 *
Ve
2.00001e-07
3.25 0.66332495807108 1
0 0

0101101
*
Ed
 2.00001e-07 1 1 0
1  36 0 6.25 6.75
2  67 11 0 6.25 6.75
2  68 12 0 6.25 6.75
0

0101000
+120 0 -75 0 *
Ed
 2.00001e-07 1 1 0
1  37 0 0.33667504192892 1.66332495807108
2  69 11 0 0.33667504192892 1.66332495807108
2  70 25 0 0.33667504192892 1.66332495807108
0

0101000
+80 0 -75 0 *
Wi

0101000
-119 0 -74 0 +73 0 +79 0 *
Fa
0  1e-07 11 0

0111000
+72 0 *
Ve
2.00001e-07
3.25 1 0.66332495807108
0 0

0101101
*
Ed
 2.00001e-07 1 1 0
1  38 0 6.25 6.75
2  71 12 0 6.25 6.75
2  72 13 0 6.25 6.75
0

0101000
+118 0 -70 0 *
Ed
 2.00001e-07 1 1 0
1  39 0 5.29807452384184 5.69749976372244
2  73 12 0 5.29807452384184 5.69749976372244
2  74 25 0 5.29807452384184 5.69749976372244
0

0101000
+70 0 -75 0 *
Wi

0101000
-69 0 -68 0 +74 0 +117 0 *
Fa
0  1e-07 12 0

0111000
+67 0 *
Ve
2.00001e-07
3.25 1 -0.66332495807108
0 0

0101101
*
Ed
 2.00001e-07 1 1 0
1  40 0 6.25 6.75
2  75 13 0 6.25 6.75
2  76 14 0 6.25 6.75
0

0101000
+116 0 -65 0 *
Ed
 2.00001e-07 1 1 0
1  41 0 0.33667504192892 1.66332495807108
2  77 13 0 0.33667504192892 1.66332495807108
2  78 25 0 0.33667504192892 1.66332495807108
0

0101000
+65 0 -70 0 *
Wi

0101000
-64 0 -63 0 +69 0 +115 0 *
Fa
0  1e-07 13 0

0111000
+62 0 *
Ve
2.00001e-07
3.25 0.66332495807108 -1
0 0

0101101
*
Ed
 2.00001e-07 1 1 0
1  42 0 6.25 6.75
2  79 14 0 6.25 6.75
2  80 15 0 6.25 6.75
0

0101000
+114 0 -60 0 *
Ed
 2.00001e-07 1 1 0
1  43 0 3.72727819704694 4.12670343692754
2  73 14 0 3.72727819704694 4.12670343692754
2  74 25 0 3.72727819704694 4.12670343692754
0

0101000
+60 0 -65 0 *
Wi

0101000
-59 0 -58 0 +64 0 +113 0 *
Fa
0  1e-07 14 0

0111000
+57 0 *
Ve
2.00001e-07
3.25 -0.66332495807108 -1
0 0

0101101
*
Ed
 2.00001e-07 1 1 0
1  44 0 0.33667504192892 1.66332495807108
2  81 15 0 0.33667504192892 1.66332495807108
2  82 25 0 0.33667504192892 1.66332495807108
0

0101000
+55 0 -60 0 *
Ed
 2.00001e-07 1 1 0
1  45 0 6.25 6.75
2  83 15 0 6.25 6.75
2  84 16 0 6.25 6.75
0

0101000
+112 0 -55 0 *
Wi

0101000
-111 0 -59 0 +54 0 +53 0 *
Fa
0  1e-07 15 0

0111000
+52 0 *
Ed
 2.00001e-07 1 1 0
1  46 0 2.15648187025205 2.55590711013264
2  85 16 0 2.15648187025205 2.55590711013264
2  86 25 0 2.15648187025205 2.55590711013264
0

0101000
+87 0 -55 0 *
Wi

0101000
-86 0 -50 0 +53 0 +110 0 *
Fa
0  1e-07 16 0

0111000
+49 0 *
Ve
2.00001e-07
-3.25 -1 -0.66332495807108
0 0

0101101
*
Ed
 2.00001e-07 1 1 0
1  47 0 0.25 0.75
2  87 17 0 0.25 0.75
2  88 24 0 0.25 0.75
0

0101000
+47 0 -106 0 *
Ve
2.00001e-07
-3.25 -1 0.66332495807108
0 0

0101101
*
Ed
 2.00001e-07 1 1 0
1  48 0 0.25 0.75
2  89 17 0 0.25 0.75
2  90 18 0 0.25 0.75
0

0101000
+45 0 -105 0 *
Ed
 2.00001e-07 1 1 0
1  49 0 0.33667504192892 1.66332495807108
2  91 17 0 0.33667504192892 1.66332495807108
2  92 26 0 0.33667504192892 1.66332495807108
0

0101000
+47 0 -45 0 *
Wi

0101000
-46 0 -104 0 +44 0 +43 0 *
Fa
0  1e-07 17 0

0111000
+42 0 *
Ve
2.00001e-07
-3.25 -0.66332495807108 1
0 0

0101101
*
Ed
 2.00001e-07 1 1 0
1  50 0 6.86887085063674 7.26829609051733
2  93 18 0 6.86887085063674 7.26829609051733
2  94 26 0 6.86887085063674 7.26829609051733
0

0101000
+40 0 -45 0 *
Ed
 2.00001e-07 1 1 0
1  51 0 0.25 0.75
2  95 18 0 0.25 0.75
2  96 19 0 0.25 0.75
0

0101000
+40 0 -103 0 *
Wi

0101000
-102 0 +44 0 +39 0 -38 0 *
Fa
0  1e-07 18 0

0111000
+37 0 *
Ve
2.00001e-07
-3.25 0.66332495807108 1
0 0

0101101
*
Ed
 2.00001e-07 1 1 0
1  52 0 0.33667504192892 1.66332495807108
2  97 19 0 0.33667504192892 1.66332495807108
2  98 26 0 0.33667504192892 1.66332495807108
0

0101000
+40 0 -35 0 *
Ed
 2.00001e-07 1 1 0
1  53 0 0.25 0.75
2  99 19 0 0.25 0.75
2  100 20 0 0.25 0.75
0

0101000
+35 0 -101 0 *
Wi

0101000
-34 0 -33 0 +100 0 +38 0 *
Fa
0  1e-07 19 0

0111000
+32 0 *
Ve
2.00001e-07
-3.25 1 0.66332495807108
0 0

0101101
*
Ed
 2.00001e-07 1 1 0
1  54 0 5.29807452384184 5.69749976372244
2  101 20 0 5.29807452384184 5.69749976372244
2  102 26 0 5.29807452384184 5.69749976372244
0

0101000
+30 0 -35 0 *
Ed
 2.00001e-07 1 1 0
1  55 0 0.25 0.75
2  103 20 0 0.25 0.75
2  104 21 0 0.25 0.75
0

0101000
+30 0 -99 0 *
Wi

0101000
-98 0 +33 0 +29 0 -28 0 *
Fa
0  1e-07 20 0

0111000
+27 0 *
Ve
2.00001e-07
-3.25 1 -0.66332495807108
0 0

0101101
*
Ed
 2.00001e-07 1 1 0
1  56 0 0.25 0.75
2  105 21 0 0.25 0.75
2  106 22 0 0.25 0.75
0

0101000
+25 0 -97 0 *
Ed
 2.00001e-07 1 1 0
1  57 0 0.33667504192892 1.66332495807108
2  107 21 0 0.33667504192892 1.66332495807108
2  108 26 0 0.33667504192892 1.66332495807108
0

0101000
+25 0 -30 0 *
Wi

0101000
-24 0 -96 0 +28 0 +23 0 *
Fa
0  1e-07 21 0

0111000
+22 0 *
Ve
2.00001e-07
-3.25 0.66332495807108 -1
0 0

0101101
*
Ed
 2.00001e-07 1 1 0
1  58 0 3.72727819704694 4.12670343692754
2  101 22 0 3.72727819704694 4.12670343692754
2  102 26 0 3.72727819704694 4.12670343692754
0

0101000
+20 0 -25 0 *
Ed
 2.00001e-07 1 1 0
1  59 0 0.25 0.75
2  109 22 0 0.25 0.75
2  110 23 0 0.25 0.75
0

0101000
+20 0 -95 0 *
Wi

0101000
-94 0 +24 0 +19 0 -18 0 *
Fa
0  1e-07 22 0

0111000
+17 0 *
Ve
2.00001e-07
-3.25 -0.66332495807108 -1
0 0

0101101
*
Ed
 2.00001e-07 1 1 0
1  60 0 0.33667504192892 1.66332495807108
2  111 23 0 0.33667504192892 1.66332495807108
2  112 26 0 0.33667504192892 1.66332495807108
0

0101000
+15 0 -20 0 *
Ed
 2.00001e-07 1 1 0
1  61 0 0.25 0.75
2  113 23 0 0.25 0.75
2  114 24 0 0.25 0.75
0

0101000
+15 0 -93 0 *
Wi

0101000
-14 0 -18 0 +92 0 +13 0 *
Fa
0  1e-07 23 0

0111000
+12 0 *
Ed
 2.00001e-07 1 1 0
1  62 0 2.15648187025205 2.55590711013264
2  115 24 0 2.15648187025205 2.55590711013264
2  116 26 0 2.15648187025205 2.55590711013264
0

0101000
+47 0 -15 0 *
Wi

0101000
-91 0 +13 0 +10 0 -46 0 *
Fa
0  1e-07 24 0

0111000
+9 0 *
Wi

0101000
-84 0 +78 0 -73 0 +68 0 +63 0 +58 0 +54 0 +50 0 *
Fa
0  1e-07 25 0

0111000
+7 0 *
Wi

0101000
-43 0 +39 0 -34 0 +29 0 +23 0 +19 0 +14 0 +10 0 *
Fa
0  1e-07 26 0

0111000
+5 0 *
Sh

0101000
+150 0 +146 0 +139 0 -132 0 +129 0 -126 0 -107 0 +88 0 -81 0 +76 0 
+71 0 +66 0 +61 0 +56 0 -51 0 +48 0 -41 0 +36 0 +31 0 +26 0 
+21 0 +16 0 -11 0 +8 0 +6 0 -4 0 *
So

0100000
+3 0 *
Co

1100000
+2 0 *

+1 0 
##EGADS HEADER FILE-REV 1 ##
0
  1  1  26  28  62  40  0
    2 0 1
1 4 2
brch
1 3 
    2 1 1
1 4 2
brch
1 4 
    2 2 1
1 4 2
brch
8 0 
    2 3 1
1 4 2
brch
4 0 
    2 4 1
1 4 2
brch
8 0 
    2 5 1
1 4 2
brch
4 0 
    2 6 1
1 4 2
brch
5 1 
    2 7 1
1 4 2
brch
2 2 
    2 8 1
1 4 2
brch
5 3 
    2 9 1
1 4 2
brch
9 3 
    2 10 1
1 4 2
brch
5 6 
    2 11 1
1 4 2
brch
9 4 
    2 12 1
1 4 2
brch
5 4 
    2 13 1
1 4 2
brch
9 4 
    2 14 1
1 4 2
brch
5 5 
    2 15 1
1 4 2
brch
9 3 
    2 16 1
1 4 2
brch
2 3 
    2 17 1
1 4 2
brch
9 3 
    2 18 1
1 4 2
brch
2 6 
    2 19 1
1 4 2
brch
9 4 
    2 20 1
1 4 2
brch
2 4 
    2 21 1
1 4 2
brch
9 4 
    2 22 1
1 4 2
brch
2 5 
    2 23 1
1 4 2
brch
9 3 
    2 24 1
1 4 2
brch
5 2 
    2 25 1
1 4 2
brch
2 1 
    4 0 1
1 4 2
brch
1 304 
    4 1 1
1 4 2
brch
8 0 
    4 2 1
1 4 2
brch
4 0 
    4 3 1
1 4 2
brch
1 304 
    4 4 1
1 4 2
brch
8 0 
    4 5 1
1 4 2
brch
4 0 
    4 6 1
1 4 2
brch
8 0 
    4 7 1
1 4 2
brch
8 0 
    4 8 1
1 4 2
brch
8 0 
    4 9 1
1 4 2
brch
4 0 
    4 10 1
1 4 2
brch
4 0 
    4 11 1
1 4 2
brch
4 0 
    4 12 1
1 4 2
brch
8 0 
    4 13 1
1 4 2
brch
4 0 
    4 14 1
1 4 2
brch
5 103 
    4 15 1
1 4 2
brch
11 0 
    4 16 1
1 4 2
brch
5 106 
    4 17 1
1 4 2
brch
11 0 
    4 18 1
1 4 2
brch
5 104 
    4 19 1
1 4 2
brch
11 0 
    4 20 1
1 4 2
brch
5 105 
    4 21 1
1 4 2
brch
11 0 
    4 22 1
1 4 2
brch
2 203 
    4 23 1
1 4 2
brch
11 0 
    4 24 1
1 4 2
brch
2 206 
    4 25 1
1 4 2
brch
11 0 
    4 26 1
1 4 2
brch
2 204 
    4 27 1
1 4 2
brch
11 0 
    4 28 1
1 4 2
brch
2 205 
    4 29 1
1 4 2
brch
11 0 
    4 30 1
1 4 2
brch
11 0 
    4 31 1
1 4 2
brch
5 203 
    4 32 1
1 4 2
brch
11 0 
    4 33 1
1 4 2
brch
11 0 
    4 34 1
1 4 2
brch
11 0 
    4 35 1
1 4 2
brch
11 0 
    4 36 1
1 4 2
brch
5 206 
    4 37 1
1 4 2
brch
11 0 
    4 38 1
1 4 2
brch
11 0 
    4 39 1
1 4 2
brch
11 0 
    4 40 1
1 4 2
brch
5 204 
    4 41 1
1 4 2
brch
11 0 
    4 42 1
1 4 2
brch
11 0 
    4 43 1
1 4 2
brch
5 205 
    4 44 1
1 4 2
brch
11 0 
    4 45 1
1 4 2
brch
11 0 
    4 46 1
1 4 2
brch
11 0 
    4 47 1
1 4 2
brch
11 0 
    4 48 1
1 4 2
brch
2 103 
    4 49 1
1 4 2
brch
11 0 
    4 50 1
1 4 2
brch
11 0 
    4 51 1
1 4 2
brch
2 106 
    4 52 1
1 4 2
brch
11 0 
    4 53 1
1 4 2
brch
11 0 
    4 54 1
1 4 2
brch
11 0 
    4 55 1
1 4 2
brch
11 0 
    4 56 1
1 4 2
brch
2 104 
    4 57 1
1 4 2
brch
11 0 
    4 58 1
1 4 2
brch
11 0 
    4 59 1
1 4 2
brch
2 105 
    4 60 1
1 4 2
brch
11 0 
    4 61 1
1 4 2
brch
11 0 
    0 0 0
