DBRep_DrawableShape

CASCADE Topology V1, (c) Matra-Datavision
Locations 0
Curve2ds 8
1 0 1.5707963267948966 1 0 
1 3.1415926535897931 0 0 1 
1 3.1415926535897931 0 0 1 
1 0 -1.5707963267948966 1 0 
1 6.2831853071795862 -6.2831853071795862 0 1 
1 0 -6.2831853071795862 0 1 
1 0 1.5707963267948966 1 0 
1 0 -1.5707963267948966 1 0 
Curves 2
7 0 0  8 9 2  -2.2204460492503131e-16 -2.4651903288156619e-32 -1  -0.39269908169872431 4.8091767343044917e-17 -0.99999999999999878  -0.78540282094168468 9.6184105070752964e-17 -0.82371721549250176  -1.0857842572054017 1.3297022151511942e-16 -0.47146844414510591  -1.2018057290002218 1.4717875392170564e-16 -1.4876988529977085e-14  -1.0857842572054017 1.3297022151511954e-16 0.47146844414513028  -0.78540282094168512 9.6184105070752853e-17 0.82371721549248922  -0.39269908169872403 4.8091767343044966e-17 1.0000000000000024  -2.2204460492503131e-16 -2.4651903288156619e-32 1 
 -1.5707963267948966 9 1.5707963267948966 9
2 0 0 0 -2.4492935982947064e-16 -1 0 1 -2.4492935982947064e-16 0 0 0 1 1
Polygon3D 0
PolygonOnTriangulations 0
Surfaces 2
10 3.1415926535897931 6.2831853071795862 -1.5707963267948966 1.5707963267948966
4 0 0 0 0 0 1 1 0 -0 -0 1 0 1
10 0 3.1415926535897931 -1.5707963267948966 1.5707963267948966
4 0 0 0 0 0 1 1 0 -0 -0 1 0 1
Triangulations 0

TShapes 15
Ve
1e-07
6.12323399573677e-17 -1.49975978266186e-32 1
0 0

0101101
*
Ed
 1e-07 1 1 1
2  1 1 0 3.14159265358979 6.28318530717959
0

0101100
-15 0 +15 0 *
Ve
1e-05
6.12323399573677e-17 -1.49975978266186e-32 -1
0 0

0101101
*
Ed
 1e-05 1 1 0
1  1 0 -1.5707963267949 1.5707963267949
2  2 1 0 -1.5707963267949 1.5707963267949
2  3 2 0 -1.5707963267949 1.5707963267949
0

0101000
-15 0 +13 0 *
Ed
 1e-07 1 1 1
2  4 1 0 3.14159265358979 6.28318530717959
0

0101100
+13 0 -13 0 *
Ed
 1e-07 1 1 0
1  2 0 4.71238898038469 7.85398163397448
2  5 1 0 4.71238898038469 7.85398163397448
2  6 2 0 4.71238898038469 7.85398163397448
0

0101000
+13 0 -15 0 *
Wi

0101100
-14 0 -12 0 +11 0 +10 0 *
Fa
0  1e-07 1 0

0111000
+9 0 *
Ed
 1e-07 1 1 1
2  7 2 0 0 3.14159265358979
0

0101100
-15 0 +15 0 *
Ed
 1e-07 1 1 1
2  8 2 0 0 3.14159265358979
0

0101100
+13 0 -13 0 *
Wi

0101100
-7 0 -10 0 +6 0 +12 0 *
Fa
0  1e-07 2 0

0111000
+5 0 *
Sh

0101000
+8 0 +4 0 *
So

0100000
+3 0 *
Co

1100000
+2 0 *

+1 0 
##EGADS HEADER FILE-REV 1 ##
0
  1  1  2  2  6  2  0
    2 0 1
1 4 2
brch
1 1 
    2 1 1
1 4 2
brch
1 2 
    4 0 1
1 4 2
brch
-3 -3 
    4 1 1
1 4 2
brch
1 102 
    4 2 1
1 4 2
brch
-3 -3 
    4 3 1
1 4 2
brch
1 102 
    4 4 1
1 4 2
brch
-3 -3 
    4 5 1
1 4 2
brch
-3 -3 
    0 0 0
